<?xml version="1.0" encoding="utf-8"?>
<!-- Generator: Adobe Illustrator 16.0.0, SVG Export Plug-In . SVG Version: 6.00 Build 0)  -->
<!DOCTYPE svg PUBLIC "-//W3C//DTD SVG 1.1//EN" "http://www.w3.org/Graphics/SVG/1.1/DTD/svg11.dtd">
<svg version="1.1" id="Layer_2" xmlns="http://www.w3.org/2000/svg" xmlns:xlink="http://www.w3.org/1999/xlink" x="0px" y="0px"
	 width="612px" height="792px" viewBox="0 0 612 792" enable-background="new 0 0 612 792" xml:space="preserve">
<path fill="#ED1941" d="M500.316,278.855c0-53.813-21.812-102.531-57.076-137.796c-35.265-35.265-83.982-57.077-137.795-57.077
	s-102.531,21.812-137.796,57.077c-35.265,35.265-57.077,83.983-57.077,137.796c0,14.657,1.621,28.935,4.692,42.666
	s7.591,26.915,13.388,39.385l88.181,174.547L306,710l88.184-174.547l88.053-174.547c5.797-12.47,10.317-25.654,13.388-39.385
	C498.695,307.79,500.316,293.513,500.316,278.855z M305.445,399.727c-66.756,0-120.873-54.116-120.873-120.872
	c0-66.756,54.117-120.873,120.873-120.873c66.756,0,120.872,54.117,120.872,120.873C426.316,345.61,372.201,399.727,305.445,399.727
	z"/>
</svg>
